EMG
version=1
nRows=27
nColumns=17
inDegrees=no
endheader
time	EMG01_right_gast_med	EMG02_right_glut_max	EMG03_left_gast_med	EMG04_left_glut_max	EMG05_right_glut_med	EMG06_right_bic_fem	EMG07_right_rect_fem	EMG08_right_vast_lat	EMG09_right_vast_med	EMG10_right_tens_fasc_lat	EMG11_left_glut_med	EMG12_left_bic_fem	EMG13_left_rect_fem	EMG14_left_vast_lat	EMG15_left_vast_med	EMG16_left_tens_fasc_lat
      0.84000000	    -61.42002487	      5.05499125	      4.50866890	     49.40707397	     27.12465858	     -5.73400259	      5.55768394	     -4.48547745	    -26.85123253	    -61.41282272	    -24.60695839	     41.21403503	    -97.75655365	    106.86093903	    -31.01118279	    -66.14196777
      0.85000000	   -534.36407471	     -4.13094521	    -25.28793716	     58.45252609	     15.81819153	     -0.69919682	      3.01932311	      3.91162634	     -8.48472691	    -84.56435394	    -41.07704163	    -14.45559597	    -11.36401939	    -24.44998360	      1.13784313	    -25.03441238
      0.86000000	      8.61852074	     -1.22419024	     28.93569565	     22.48788834	     51.44928741	    -78.99993896	     -1.74176049	      8.93384266	    -20.64555740	    -66.56743622	      6.17374468	     50.77544022	     -5.98497248	     22.28369904	    -66.19488525	     48.91533661
      0.87000000	     13.87815475	      7.05383205	    -42.80516815	    110.74496460	     15.19902229	    -38.95100021	      0.44144011	      1.75228667	     -0.18975165	     17.54964447	     -6.61814213	     34.48025513	    -68.77995300	    -91.44123077	   -126.22738647	     12.80897427
      0.88000000	     23.83172035	     11.43449402	    -73.08246613	     51.19649124	   -118.34957123	    -89.44562531	     -0.27656269	      7.05857992	     -4.24814892	     45.89130402	     -1.62109554	    -13.89845276	    -24.19922447	    -88.86798096	    -18.67794800	     30.17707443
      0.89000000	     -4.90540314	     25.69833374	     18.47798920	    -55.93876648	    140.10246277	    -22.76873779	     11.62858582	     12.30794621	      7.18215942	     67.35192108	     42.94231415	    130.93551636	     62.60076904	     -6.36508131	     54.49973297	     84.62015533
      0.90000000	     -5.62091875	     51.20450974	    -35.52755737	     -7.66857624	    232.06903076	      7.64213943	      1.26083088	    -25.91149330	     16.43788147	    129.89448547	    -37.33292007	     30.09681892	    -89.41253662	    134.82554626	     66.93765259	    -22.27487564
      0.91000000	     -8.85706329	     34.19310760	    -13.59886932	     -0.83135462	   -120.01458740	      6.41547680	     -0.86095083	     34.70236969	      5.37832165	    187.33686829	    -46.82655334	    -40.68055344	      4.60516453	   -110.91788483	     67.24030304	   -134.15998840
      0.92000000	    -10.54800606	     36.60041428	     55.33356094	    -87.12932587	   -328.35614014	     14.40133095	    -40.17014313	    -36.38029480	     17.71071243	     87.14974213	     82.78086853	    -12.33115482	     62.23317719	     -2.55184174	   3288.31176758	   -137.18437195
      0.93000000	     -6.82913494	     26.95118904	      4.99037170	   -109.34799957	   -149.93601990	     12.10397053	    -14.02160168	     -0.19629312	      6.70375633	     19.42734337	     23.19385147	    -18.21561241	    -73.16079712	    -79.94261169	   -622.38183594	   -110.49933624
      0.94000000	     -9.61420631	     12.50065899	     16.25335312	    -81.09721375	    118.78172302	      7.51522923	     -3.33554268	      3.91700506	     21.52803993	    -69.43932343	      9.03415775	    -11.44437408	    -17.00001144	     99.63958740	    -57.53605270	     -4.70601225
      0.95000000	      2.26963425	    -17.08254623	     18.77505302	    -17.65843201	    194.66795349	     -4.09511805	     -5.08493328	      4.82000494	     24.55713081	   -144.37191772	    -21.76793289	    -27.44313431	      3.84540939	      4.09121227	     70.50053406	   -162.00198364
      0.96000000	     14.76000214	    -18.95731163	     11.44554806	     17.65244675	    150.95719910	     20.24048233	    -14.66112137	     47.99364471	     59.89705658	   -174.70600891	     22.31721306	    -24.94566917	    -82.96992493	     71.21244049	     69.24212646	     76.25605774
      0.97000000	     -2.25969028	      4.03511620	    -44.17683411	     75.18131256	    173.62394714	     -3.63908052	    -23.35412407	     89.74887848	     94.82060242	   -173.52792358	    -17.85818481	     17.55371475	    -20.15519333	     86.63655090	     52.19293976	    131.33126831
      0.98000000	    -31.77853012	      9.13396263	    -33.80765152	    100.73542023	    100.30937195	    -42.38119507	    -23.21743584	     56.50093079	    -29.37161827	   -115.67204285	    -32.37338257	     29.60135841	     20.81189346	    -30.80474472	    -15.91866112	    225.97494507
      0.99000000	    -55.64735413	    -39.25504303	      2.97924042	    171.94804382	     14.23282242	     -3.54340124	      2.75725269	    -15.32355499	    -90.29493713	    -64.03234100	     -1.47158909	     28.21865273	      8.62840271	    -80.62964630	   -152.22163391	    109.25270081
      1.00000000	    -40.26478958	   -102.02758789	    -15.81127930	    125.63206482	   -110.61087036	    -17.76650238	     13.48152733	    -51.53284073	    -73.92375946	    -48.43437195	     12.70762253	      0.07500601	     62.35382462	    -35.83252716	   -370.38143921	     97.77413177
      1.01000000	    -29.98753357	   -305.60678101	     28.32188797	     41.35266113	   -177.24060059	    -61.15840149	     28.89342117	    -68.93357849	    -57.02598572	    -38.26844406	    -13.68381310	     -9.04635620	     31.55534744	    -48.98910904	   -111.15368652	     20.98049355
      1.02000000	    -30.63843346	   -379.29190063	     36.44513321	    -63.84857559	   -247.33035278	    -22.16927338	     45.67004013	    -65.98781586	    -37.01327896	    -21.94113731	      5.31080532	     -6.16960478	      6.90775204	    -13.13461781	     27.71142960	    -92.47844696
      1.03000000	    -46.39378738	   -225.74620056	   -219.68453979	   -166.39628601	   -298.89749146	     -0.53642845	     16.79157448	    -41.18957520	    -28.79406357	    -58.61633682	    -23.60283852	      5.69614935	     48.79710007	      5.21858025	     18.60252762	     58.59838486
      1.04000000	    -24.15906143	      9.49309444	    -31.69726562	   -195.39584351	   -307.74194336	     47.98763275	      0.03314972	    -37.53513718	    -17.07030869	   -246.89685059	     -6.88492680	     -1.41535187	     38.73459625	      9.54977322	   -122.20043182	     77.08806610
      1.05000000	    -38.78594208	    117.75626373	    -24.46926498	   -253.91113281	   -179.29989624	     10.22494507	      5.86491394	    -61.88100433	      3.18733120	   -344.88815308	     -9.81307983	     -4.12234879	     17.57714462	     -2.18504715	    -84.57614136	     15.72766209
      1.06000000	     -6.74977016	    147.48931885	      7.43660259	   -309.58828735	    -18.78777504	      7.32518578	     -0.78170568	    -63.26625443	     -2.27674246	   -135.81494141	     -4.00690222	     -4.68302536	     21.26984787	      4.53536129	     77.91566467	   -106.26878357
      1.07000000	     12.87571716	     60.64487076	     31.53277779	   -180.78210449	     99.82401276	    -15.16214371	     -1.05929685	    -42.77853394	     11.45461082	    130.26393127	    -35.13964462	    -10.20133781	     11.70450592	      9.80225945	     82.33438873	   -157.93626404
      1.08000000	     25.21265602	     81.57883453	    -75.60504913	    -26.82664871	    126.44023895	    -21.93473434	      0.68178868	    -26.36142731	     15.53577995	    133.31689453	      7.61281395	     -3.99356937	     28.20270157	     14.83793640	     34.88507462	    -82.22229767
      1.09000000	     15.31014633	    105.52982330	    -15.04533005	    100.52209473	     66.54080200	      8.48776531	     -1.11284566	    -16.90534973	     20.29464340	    104.34566498	     -4.62956333	    -18.11179352	     15.10873032	    -26.54311943	    -27.14832115	     35.05445099
      1.10000000	      6.78165722	    154.72991943	     46.58728409	    210.07870483	    -10.29350090	    -15.40651894	     -6.44448328	    -16.32304573	     20.03630447	     64.57233429	     -9.78898430	     -3.74748039	     20.59549713	      0.34371561	     21.38612366	    105.35629272
